<?xml version="1.0" encoding="utf-8"?>
<!-- Generator: Adobe Illustrator 15.0.2, SVG Export Plug-In . SVG Version: 6.00 Build 0)  -->
<!DOCTYPE svg PUBLIC "-//W3C//DTD SVG 1.1//EN" "http://www.w3.org/Graphics/SVG/1.1/DTD/svg11.dtd">
<svg version="1.1" id="Layer_1" xmlns="http://www.w3.org/2000/svg" xmlns:xlink="http://www.w3.org/1999/xlink" x="0px" y="0px"
	 width="451px" height="451px" viewBox="0 0 451 451" enable-background="new 0 0 451 451" xml:space="preserve">
<circle fill="none" stroke="#3B6E8F" stroke-width="7" stroke-linejoin="round" stroke-miterlimit="10" cx="232.413" cy="109.028" r="16.883"/>
<circle fill="none" stroke="#3B6E8F" stroke-width="6" stroke-linejoin="round" stroke-miterlimit="10" cx="266.679" cy="59.528" r="24.383"/>
<circle fill="none" stroke="#3B6E8F" stroke-width="7" stroke-linejoin="round" stroke-miterlimit="10" cx="198.737" cy="34.204" r="30.441"/>
<path fill="#D06F1A" d="M198.737,12.081c-12.22,0-22.118,9.9-22.118,22.123c0,12.214,9.898,22.123,22.118,22.123
	c12.21,0,22.119-9.909,22.119-22.123C220.856,21.981,210.947,12.081,198.737,12.081 M206.563,46.677l-7.905-7.919l-7.757,7.75
	l-4.63-4.636l7.742-7.744l-7.617-7.632l4.628-4.646l7.634,7.634l7.742-7.752l4.636,4.642l-7.742,7.754l7.914,7.905L206.563,46.677z"
	/>
<g>
	<path fill="#3B6E8F" d="M249.266,388.974c-3.771,0-6.84,3.068-6.84,6.84c0,3.771,3.068,6.839,6.84,6.839s6.84-3.068,6.84-6.839
		C256.105,392.042,253.037,388.974,249.266,388.974z"/>
	<path fill="#3B6E8F" d="M225.488,350.127c-1.769,0-3.473,0.409-5.063,1.217c-2.673,1.355-4.656,3.671-5.587,6.519
		s-0.696,5.888,0.66,8.56c1.922,3.789,5.759,6.144,10.012,6.144c1.77,0,3.473-0.409,5.064-1.217
		c2.672-1.355,4.656-3.671,5.586-6.519c0.932-2.847,0.697-5.887-0.658-8.559C233.578,352.481,229.742,350.127,225.488,350.127z"/>
	<path fill="#3B6E8F" d="M275.568,344.378c-6.186,0-11.217,5.032-11.217,11.217s5.031,11.216,11.217,11.216
		c6.184,0,11.215-5.031,11.215-11.216S281.752,344.378,275.568,344.378z"/>
	<path fill="#3B6E8F" d="M386.377,414.81l-71.842-124.433c-3.268-5.659-10.66-9.927-17.195-9.927h-73.555
		c0.783,2.244,1.215,4.651,1.215,7.159c0,12.007-9.769,21.774-21.775,21.774s-21.775-9.768-21.775-21.774
		c0-2.508,0.432-4.915,1.215-7.159H153.66c-6.536,0-13.929,4.268-17.197,9.928l-71.84,124.431
		c-2.148,3.723-2.322,7.692-0.475,10.893c1.847,3.2,5.372,5.036,9.671,5.036h303.36c4.299,0,7.824-1.836,9.672-5.036
		S388.525,418.531,386.377,414.81z M237.795,306.812c2.267-1.15,4.8-1.758,7.326-1.758c6.147,0,11.693,3.403,14.472,8.883
		c1.96,3.862,2.299,8.257,0.953,12.374s-4.213,7.464-8.076,9.424c-2.299,1.167-4.764,1.758-7.327,1.758
		c-6.146,0-11.692-3.403-14.472-8.882C226.625,320.637,229.82,310.857,237.795,306.812z M232.837,375.808
		c-2.3,1.167-4.765,1.758-7.327,1.758c-6.146,0-11.691-3.403-14.471-8.882c-1.961-3.862-2.299-8.258-0.953-12.375
		c1.345-4.117,4.213-7.464,8.076-9.424c2.267-1.15,4.801-1.758,7.326-1.758c6.147,0,11.693,3.403,14.473,8.883
		c1.959,3.862,2.299,8.257,0.953,12.374S236.699,373.848,232.837,375.808z M249.266,406.652c-5.977,0-10.84-4.862-10.84-10.839
		c0-5.978,4.863-10.84,10.84-10.84s10.84,4.862,10.84,10.84C260.105,401.79,255.242,406.652,249.266,406.652z M275.568,371.811
		c-8.943,0-16.217-7.274-16.217-16.216c0-8.942,7.273-16.217,16.217-16.217c8.941,0,16.215,7.274,16.215,16.217
		C291.783,364.536,284.51,371.811,275.568,371.811z"/>
	<path fill="#3B6E8F" d="M245.143,332.492c1.77,0,3.474-0.409,5.065-1.217c2.671-1.355,4.654-3.67,5.585-6.518
		s0.696-5.888-0.659-8.56c-1.922-3.79-5.759-6.145-10.013-6.145c-1.769,0-3.473,0.409-5.064,1.217
		c-5.515,2.798-7.726,9.562-4.927,15.078C237.053,330.138,240.89,332.492,245.143,332.492z"/>
	<path fill="#3B6E8F" d="M203.225,303.82c8.698,0,15.775-7.076,15.775-15.774s-7.077-15.775-15.775-15.775
		s-15.775,7.077-15.775,15.775S194.526,303.82,203.225,303.82z"/>
</g>
<g>
	<path fill="none" stroke="#103556" stroke-width="12" stroke-linejoin="round" stroke-miterlimit="10" d="M81.179,444.737
		c-27.5,0-38.75-19.485-25-43.301l89.669-155.311c13.75-23.815,26.366-45.667,28.036-48.561c1.67-2.893,3.045-27.759,3.056-55.259
		l0-1.396c0.011-27.5-6.792-50-15.117-50c-8.325,0-15.198-5.175-15.273-11.5s22.363-11.5,49.863-11.5h57c27.5,0,50,5.175,50,11.5
		s-6.609,11.5-14.687,11.5s-14.678,22.5-14.666,50v1.396c0.012,27.5,1.387,52.366,3.057,55.259
		c1.67,2.894,14.286,24.745,28.036,48.561l89.668,155.311c13.75,23.815,2.5,43.301-25,43.301H81.179z"/>
</g>
</svg>
