<?xml version="1.0" encoding="UTF-8" ?>
<!DOCTYPE svg PUBLIC "-//W3C//DTD SVG 1.1//EN" "http://www.w3.org/Graphics/SVG/1.1/DTD/svg11.dtd">
<svg width="577pt" height="83pt" viewBox="0 0 577 83" version="1.1" xmlns="http://www.w3.org/2000/svg">
<path fill="#ffffff" d=" M 0.00 0.00 L 493.75 0.00 C 493.78 9.15 493.66 18.31 493.83 27.46 C 485.25 18.02 468.85 17.79 460.05 27.02 C 455.65 31.28 453.23 37.09 451.80 42.95 C 451.59 36.77 450.95 29.51 445.51 25.55 C 438.44 20.52 429.31 20.42 420.97 20.26 C 412.02 20.56 402.19 21.10 394.87 26.87 C 390.86 29.97 390.03 35.21 388.34 39.67 C 385.40 30.56 377.15 23.98 368.02 21.76 C 354.46 18.24 338.21 20.59 328.71 31.69 C 328.76 27.92 328.75 24.14 328.70 20.37 C 324.24 20.28 319.50 20.27 315.55 22.66 C 311.42 24.92 309.22 29.26 307.14 33.28 C 307.25 29.52 307.26 25.76 307.26 22.00 C 300.00 22.00 292.75 22.00 285.50 22.00 C 285.55 32.69 285.40 43.38 285.59 54.07 C 278.43 45.21 266.45 44.34 256.19 41.73 C 253.56 40.87 249.08 39.92 250.06 36.21 C 251.73 33.15 255.90 33.10 258.89 33.79 C 261.62 34.31 262.61 37.14 263.91 39.22 C 271.06 39.28 278.20 39.26 285.35 39.22 C 284.39 34.18 282.63 28.87 278.16 25.87 C 270.06 20.19 259.51 19.90 250.00 20.58 C 241.59 21.46 231.64 24.75 228.42 33.40 C 227.72 38.57 226.41 44.61 229.84 49.14 C 233.48 54.19 239.77 56.18 245.56 57.58 C 250.83 58.94 256.46 59.24 261.40 61.70 C 263.99 62.69 264.30 66.61 262.18 68.22 C 259.38 70.50 255.20 70.47 252.01 69.06 C 249.40 68.02 248.62 65.08 247.53 62.79 C 241.63 62.72 235.73 62.75 229.84 62.76 C 229.26 58.54 228.31 53.98 224.82 51.15 C 216.85 44.15 205.64 44.16 196.02 41.00 C 194.14 40.33 190.95 38.75 192.26 36.31 C 193.68 33.11 198.04 33.14 200.97 33.77 C 203.67 34.33 204.71 37.15 206.07 39.21 C 212.17 39.25 218.27 39.25 224.36 39.37 C 225.86 40.09 226.79 38.58 226.92 37.40 C 226.05 29.88 219.99 24.04 212.84 22.24 C 201.82 19.33 189.47 19.21 179.04 24.23 C 173.28 26.91 169.70 32.76 169.17 39.01 C 166.00 30.93 158.98 24.73 150.70 22.27 C 136.64 17.96 119.37 20.19 109.43 31.89 C 109.51 28.05 109.52 24.21 109.49 20.37 C 105.10 20.29 100.44 20.25 96.56 22.63 C 92.17 24.97 89.86 29.61 87.95 33.98 C 88.02 29.99 88.01 25.99 88.00 22.00 C 80.83 22.00 73.67 22.00 66.50 22.00 C 66.53 29.07 66.37 36.15 66.65 43.21 C 65.27 36.73 62.20 30.36 56.57 26.56 C 48.92 21.17 39.12 19.79 29.98 20.44 C 21.21 21.14 12.27 24.65 6.63 31.65 C 2.83 36.08 0.95 41.79 0.00 47.47 L 0.00 0.00 Z" />
<path fill="#888a8c" d=" M 493.75 0.00 L 517.64 0.00 C 517.23 11.51 517.78 23.03 517.36 34.53 C 521.19 24.68 532.20 20.81 541.97 20.38 C 551.05 20.09 561.16 20.60 568.59 26.48 C 572.58 29.52 574.07 34.51 575.07 39.21 C 567.93 39.27 560.80 39.29 553.66 39.20 C 552.21 36.99 550.96 33.92 547.94 33.61 C 544.67 32.98 539.49 33.67 539.51 37.97 C 540.81 40.48 543.80 41.08 546.28 41.83 C 554.65 43.98 563.77 44.78 571.00 49.94 C 574.22 52.12 576.11 55.69 577.00 59.40 L 577.00 65.70 C 576.06 69.86 574.01 73.86 570.55 76.46 C 564.90 80.92 557.55 82.35 550.56 83.00 L 539.55 83.00 C 531.10 82.32 522.57 79.10 517.42 72.05 C 517.48 75.20 517.50 78.35 517.52 81.50 C 510.34 81.51 503.17 81.50 496.00 81.51 C 496.00 79.03 496.01 76.56 496.04 74.09 C 492.35 78.52 487.54 82.31 481.63 83.00 L 472.74 83.00 C 467.05 81.63 461.38 79.08 457.67 74.38 C 454.61 70.85 453.03 66.38 451.67 61.98 C 451.78 65.93 451.59 69.89 451.79 73.85 C 451.83 76.79 453.84 79.11 455.31 81.48 C 446.99 81.53 438.67 81.49 430.35 81.51 C 429.99 79.57 429.63 77.62 429.28 75.68 C 424.40 79.37 418.82 82.20 412.69 83.00 L 402.50 83.00 C 398.18 82.07 393.73 80.67 390.52 77.48 C 388.13 75.31 386.97 72.24 385.79 69.33 C 380.41 77.61 370.91 82.14 361.27 83.00 L 351.50 83.00 C 342.15 81.98 332.51 77.93 327.26 69.78 C 322.05 62.07 321.90 52.28 323.25 43.39 C 318.10 43.91 312.23 45.94 310.65 51.47 C 307.99 61.22 309.74 71.49 309.26 81.47 C 301.33 81.54 293.40 81.50 285.47 81.49 C 285.48 78.04 285.50 74.58 285.62 71.13 C 280.68 79.02 271.30 81.90 262.56 83.00 L 248.68 83.00 C 240.53 81.85 231.97 78.74 227.52 71.32 C 222.40 79.47 212.46 82.22 203.43 83.00 L 192.46 83.00 C 185.60 82.33 178.39 80.59 173.22 75.77 C 170.67 73.46 169.35 70.21 167.99 67.13 C 163.08 76.72 152.69 82.06 142.26 83.00 L 132.51 83.00 C 122.95 81.96 113.00 77.76 107.85 69.23 C 102.95 61.60 102.92 52.09 104.19 43.41 C 100.73 44.15 96.78 44.48 94.19 47.21 C 90.99 50.59 90.41 55.51 90.26 59.96 C 90.18 67.12 90.28 74.28 90.28 81.45 C 82.35 81.55 74.43 81.50 66.50 81.49 C 66.51 74.95 66.39 68.41 66.64 61.87 C 64.79 68.13 61.44 74.24 55.68 77.69 C 50.78 80.88 44.97 82.26 39.25 83.00 L 27.73 83.00 C 20.61 81.62 13.29 79.19 8.13 73.83 C 3.34 69.27 0.79 62.86 0.00 56.39 L 0.00 47.47 C 0.95 41.79 2.83 36.08 6.63 31.65 C 12.27 24.65 21.21 21.14 29.98 20.44 C 39.12 19.79 48.92 21.17 56.57 26.56 C 62.20 30.36 65.27 36.73 66.65 43.21 C 66.37 36.15 66.53 29.07 66.50 22.00 C 73.67 22.00 80.83 22.00 88.00 22.00 C 88.01 25.99 88.02 29.99 87.95 33.98 C 89.86 29.61 92.17 24.97 96.56 22.63 C 100.44 20.25 105.10 20.29 109.49 20.37 C 109.52 24.21 109.51 28.05 109.43 31.89 C 119.37 20.19 136.64 17.96 150.70 22.27 C 158.98 24.73 166.00 30.93 169.17 39.01 C 169.70 32.76 173.28 26.91 179.04 24.23 C 189.47 19.21 201.82 19.33 212.84 22.24 C 219.99 24.04 226.05 29.88 226.92 37.40 C 226.79 38.58 225.86 40.09 224.36 39.37 C 218.27 39.25 212.17 39.25 206.07 39.21 C 204.71 37.15 203.67 34.33 200.97 33.77 C 198.04 33.14 193.68 33.11 192.26 36.31 C 190.95 38.75 194.14 40.33 196.02 41.00 C 205.64 44.16 216.85 44.15 224.82 51.15 C 228.31 53.98 229.26 58.54 229.84 62.76 C 235.73 62.75 241.63 62.72 247.53 62.79 C 248.62 65.08 249.40 68.02 252.01 69.06 C 255.20 70.47 259.38 70.50 262.18 68.22 C 264.30 66.61 263.99 62.69 261.40 61.70 C 256.46 59.24 250.83 58.94 245.56 57.58 C 239.77 56.18 233.48 54.19 229.84 49.14 C 226.41 44.61 227.72 38.57 228.42 33.40 C 231.64 24.75 241.59 21.46 250.00 20.58 C 259.51 19.90 270.06 20.19 278.16 25.87 C 282.63 28.87 284.39 34.18 285.35 39.22 C 278.20 39.26 271.06 39.28 263.91 39.22 C 262.61 37.14 261.62 34.31 258.89 33.79 C 255.90 33.10 251.73 33.15 250.06 36.21 C 249.08 39.92 253.56 40.87 256.19 41.73 C 266.45 44.34 278.43 45.21 285.59 54.07 C 285.40 43.38 285.55 32.69 285.50 22.00 C 292.75 22.00 300.00 22.00 307.26 22.00 C 307.26 25.76 307.25 29.52 307.14 33.28 C 309.22 29.26 311.42 24.92 315.55 22.66 C 319.50 20.27 324.24 20.28 328.70 20.37 C 328.75 24.14 328.76 27.92 328.71 31.69 C 338.21 20.59 354.46 18.24 368.02 21.76 C 377.15 23.98 385.40 30.56 388.34 39.67 C 390.03 35.21 390.86 29.97 394.87 26.87 C 402.19 21.10 412.02 20.56 420.97 20.26 C 429.31 20.42 438.44 20.52 445.51 25.55 C 450.95 29.51 451.59 36.77 451.80 42.95 C 453.23 37.09 455.65 31.28 460.05 27.02 C 468.85 17.79 485.25 18.02 493.83 27.46 C 493.66 18.31 493.78 9.15 493.75 0.00 Z" />
<path fill="#ffffff" d=" M 517.64 0.00 L 577.00 0.00 L 577.00 59.40 C 576.11 55.69 574.22 52.12 571.00 49.94 C 563.77 44.78 554.65 43.98 546.28 41.83 C 543.80 41.08 540.81 40.48 539.51 37.97 C 539.49 33.67 544.67 32.98 547.94 33.61 C 550.96 33.92 552.21 36.99 553.66 39.20 C 560.80 39.29 567.93 39.27 575.07 39.21 C 574.07 34.51 572.58 29.52 568.59 26.48 C 561.16 20.60 551.05 20.09 541.97 20.38 C 532.20 20.81 521.19 24.68 517.36 34.53 C 517.78 23.03 517.23 11.51 517.64 0.00 Z" />
<path fill="#ffffff" d=" M 416.21 35.29 C 419.73 34.35 424.36 34.14 427.08 36.99 C 428.80 38.84 427.79 41.77 425.64 42.74 C 421.82 44.67 417.42 44.77 413.27 45.37 C 405.26 46.26 396.77 47.44 390.28 52.66 C 390.34 48.70 390.18 44.64 388.61 40.94 C 396.29 40.10 404.02 40.66 411.72 40.50 C 412.74 38.44 413.74 35.94 416.21 35.29 Z" />
<path fill="#ffffff" d=" M 135.45 36.59 C 137.98 36.01 140.86 36.36 142.82 38.20 C 146.39 41.36 147.33 46.42 147.50 50.97 C 147.42 55.28 147.07 59.94 144.49 63.56 C 141.35 68.18 133.62 68.24 130.42 63.65 C 127.26 59.13 126.97 53.25 127.48 47.94 C 128.04 43.23 130.27 37.66 135.45 36.59 Z" />
<path fill="#ffffff" d=" M 354.41 36.63 C 357.16 35.90 360.35 36.49 362.33 38.64 C 365.95 42.39 366.69 47.94 366.49 52.93 C 366.24 56.82 365.66 61.01 363.11 64.14 C 359.57 68.48 351.80 67.90 349.03 62.99 C 346.30 58.24 345.90 52.43 346.68 47.10 C 347.28 42.68 349.69 37.72 354.41 36.63 Z" />
<path fill="#ffffff" d=" M 26.76 39.75 C 29.84 35.38 37.26 35.17 40.53 39.43 C 41.68 41.00 42.02 42.97 42.63 44.77 C 50.58 44.73 58.53 44.76 66.48 44.75 C 66.50 49.25 66.50 53.75 66.48 58.26 C 58.74 58.25 51.00 58.25 43.26 58.25 C 42.45 60.34 41.84 62.59 40.44 64.39 C 36.70 68.58 28.98 67.73 26.16 62.90 C 24.13 59.67 23.72 55.74 23.70 52.01 C 23.76 47.79 24.23 43.29 26.76 39.75 Z" />
<path fill="#ffffff" d=" M 481.20 39.31 C 485.32 37.70 490.50 39.36 492.52 43.41 C 495.16 48.73 495.17 55.37 492.65 60.74 C 490.10 66.45 480.96 68.02 477.20 62.76 C 474.58 59.12 474.55 54.34 474.81 50.04 C 475.13 45.81 476.84 40.86 481.20 39.31 Z" />
<path fill="#ffffff" d=" M 94.19 47.21 C 96.78 44.48 100.73 44.15 104.19 43.41 C 102.92 52.09 102.95 61.60 107.85 69.23 C 113.00 77.76 122.95 81.96 132.51 83.00 L 39.25 83.00 C 44.97 82.26 50.78 80.88 55.68 77.69 C 61.44 74.24 64.79 68.13 66.64 61.87 C 66.39 68.41 66.51 74.95 66.50 81.49 C 74.43 81.50 82.35 81.55 90.28 81.45 C 90.28 74.28 90.18 67.12 90.26 59.96 C 90.41 55.51 90.99 50.59 94.19 47.21 Z" />
<path fill="#ffffff" d=" M 310.65 51.47 C 312.23 45.94 318.10 43.91 323.25 43.39 C 321.90 52.28 322.05 62.07 327.26 69.78 C 332.51 77.93 342.15 81.98 351.50 83.00 L 262.56 83.00 C 271.30 81.90 280.68 79.02 285.62 71.13 C 285.50 74.58 285.48 78.04 285.47 81.49 C 293.40 81.50 301.33 81.54 309.26 81.47 C 309.74 71.49 307.99 61.22 310.65 51.47 Z" />
<path fill="#ffffff" d=" M 517.42 45.44 C 520.24 52.27 527.23 55.80 534.09 57.29 C 539.76 58.87 545.89 59.04 551.19 61.76 C 553.96 62.96 553.89 66.95 551.51 68.51 C 548.54 70.49 544.40 70.48 541.28 68.85 C 538.91 67.66 538.15 64.98 537.25 62.71 C 530.66 62.78 524.08 62.75 517.50 62.74 C 517.49 56.97 517.57 51.20 517.42 45.44 Z" />
<path fill="#ffffff" d=" M 171.21 48.39 C 177.49 56.86 188.70 57.65 198.17 59.80 C 201.02 60.64 205.41 61.31 205.78 64.98 C 205.29 70.04 198.76 70.84 194.89 69.40 C 191.81 68.62 190.53 65.56 189.81 62.78 C 183.12 62.72 176.43 62.74 169.75 62.77 C 170.93 58.08 171.45 53.23 171.21 48.39 Z" />
<path fill="#ffffff" d=" M 417.02 58.38 C 420.77 57.50 424.53 56.67 428.17 55.43 C 427.89 58.91 427.93 62.72 425.80 65.68 C 422.94 69.85 416.79 70.56 412.51 68.34 C 410.24 67.13 409.62 64.06 410.89 61.91 C 412.17 59.74 414.75 58.99 417.02 58.38 Z" />
<path fill="#ffffff" d=" M 0.00 56.39 C 0.79 62.86 3.34 69.27 8.13 73.83 C 13.29 79.19 20.61 81.62 27.73 83.00 L 0.00 83.00 L 0.00 56.39 Z" />
<path fill="#ffffff" d=" M 451.67 61.98 C 453.03 66.38 454.61 70.85 457.67 74.38 C 461.38 79.08 467.05 81.63 472.74 83.00 L 412.69 83.00 C 418.82 82.20 424.40 79.37 429.28 75.68 C 429.63 77.62 429.99 79.57 430.35 81.51 C 438.67 81.49 446.99 81.53 455.31 81.48 C 453.84 79.11 451.83 76.79 451.79 73.85 C 451.59 69.89 451.78 65.93 451.67 61.98 Z" />
<path fill="#ffffff" d=" M 570.55 76.46 C 574.01 73.86 576.06 69.86 577.00 65.70 L 577.00 83.00 L 550.56 83.00 C 557.55 82.35 564.90 80.92 570.55 76.46 Z" />
<path fill="#ffffff" d=" M 142.26 83.00 C 152.69 82.06 163.08 76.72 167.99 67.13 C 169.35 70.21 170.67 73.46 173.22 75.77 C 178.39 80.59 185.60 82.33 192.46 83.00 L 142.26 83.00 Z" />
<path fill="#ffffff" d=" M 361.27 83.00 C 370.91 82.14 380.41 77.61 385.79 69.33 C 386.97 72.24 388.13 75.31 390.52 77.48 C 393.73 80.67 398.18 82.07 402.50 83.00 L 361.27 83.00 Z" />
<path fill="#ffffff" d=" M 227.52 71.32 C 231.97 78.74 240.53 81.85 248.68 83.00 L 203.43 83.00 C 212.46 82.22 222.40 79.47 227.52 71.32 Z" />
<path fill="#ffffff" d=" M 517.42 72.05 C 522.57 79.10 531.10 82.32 539.55 83.00 L 481.63 83.00 C 487.54 82.31 492.35 78.52 496.04 74.09 C 496.01 76.56 496.00 79.03 496.00 81.51 C 503.17 81.50 510.34 81.51 517.52 81.50 C 517.50 78.35 517.48 75.20 517.42 72.05 Z" />
</svg>
